<?xml version="1.0" encoding="utf-8"?>
<!-- Generator: Adobe Illustrator 18.0.0, SVG Export Plug-In . SVG Version: 6.00 Build 0)  -->
<!DOCTYPE svg PUBLIC "-//W3C//DTD SVG 1.1//EN" "http://www.w3.org/Graphics/SVG/1.1/DTD/svg11.dtd">
<svg version="1.1" id="Calque_1" xmlns="http://www.w3.org/2000/svg" xmlns:xlink="http://www.w3.org/1999/xlink" x="0px" y="0px"
	 viewBox="0 0 283.5 283.5" enable-background="new 0 0 283.5 283.5" xml:space="preserve">
<g>
	<rect y="71" fill="#B2B2B2" width="283.6" height="7.5"/>
	<rect y="85.5" fill="#C6C6C6" width="283.6" height="7.5"/>
	<rect y="56.4" fill="#C6C6C6" width="283.6" height="7.5"/>
	<rect y="100.2" fill="#B2B2B2" width="283.6" height="7.5"/>
	<rect y="129.4" fill="#B2B2B2" width="283.6" height="7.5"/>
	<rect y="114.9" fill="#C6C6C6" width="283.6" height="7.5"/>
</g>
<g>
	<rect y="159" fill="#B2B2B2" width="283.6" height="7.5"/>
	<rect y="173.5" fill="#C6C6C6" width="283.6" height="7.5"/>
	<rect y="144.4" fill="#C6C6C6" width="283.6" height="7.5"/>
	<rect y="188.2" fill="#B2B2B2" width="283.6" height="7.5"/>
	<rect y="217.4" fill="#B2B2B2" width="283.6" height="7.5"/>
	<rect y="202.9" fill="#C6C6C6" width="283.6" height="7.5"/>
</g>
<g id="imagerighttext" display="none">
	<rect x="214.4" y="99.4" display="inline" fill="#9D9D9C" width="69" height="65.5"/>
	<rect y="113.9" display="inline" fill="#B2B2B2" width="203.8" height="7.5"/>
	<rect y="128.6" display="inline" fill="#C6C6C6" width="203.8" height="7.5"/>
	<rect y="99.4" display="inline" fill="#C6C6C6" width="203.8" height="7.5"/>
	<rect y="143.2" display="inline" fill="#B2B2B2" width="203.8" height="7.5"/>
	<rect y="172.4" display="inline" fill="#B2B2B2" width="203.8" height="7.5"/>
	<rect y="186.9" display="inline" fill="#C6C6C6" width="203.8" height="7.5"/>
	<rect y="157.7" display="inline" fill="#C6C6C6" width="203.8" height="7.5"/>
	<rect y="201.6" display="inline" fill="#B2B2B2" width="203.8" height="7.5"/>
</g>
<g id="titrerightimage" display="none">
	<rect x="214.4" y="117.6" display="inline" fill="#9D9D9C" width="69" height="65.5"/>
	<rect y="132.1" display="inline" fill="#B2B2B2" width="203.8" height="7.5"/>
	<rect y="117.6" display="inline" fill="#C6C6C6" width="203.8" height="7.5"/>
</g>
<g id="imagelefttext" display="none">
	<rect y="98.7" display="inline" fill="#9D9D9C" width="69" height="65.5"/>
	<rect x="79.7" y="113.2" display="inline" fill="#B2B2B2" width="203.8" height="7.5"/>
	<rect x="79.7" y="127.7" display="inline" fill="#C6C6C6" width="203.8" height="7.5"/>
	<rect x="79.7" y="98.5" display="inline" fill="#C6C6C6" width="203.8" height="7.5"/>
	<rect x="79.7" y="142.4" display="inline" fill="#B2B2B2" width="203.8" height="7.5"/>
	<rect x="79.7" y="171.6" display="inline" fill="#B2B2B2" width="203.8" height="7.5"/>
	<rect x="79.7" y="186.2" display="inline" fill="#C6C6C6" width="203.8" height="7.5"/>
	<rect x="79.7" y="157.1" display="inline" fill="#C6C6C6" width="203.8" height="7.5"/>
	<rect x="79.7" y="200.9" display="inline" fill="#B2B2B2" width="203.8" height="7.5"/>
</g>
<g id="titreimageleft" display="none">
	<rect y="117.6" display="inline" fill="#9D9D9C" width="69" height="65.5"/>
	<rect x="79.7" y="132.2" display="inline" fill="#B2B2B2" width="203.8" height="7.5"/>
	<rect x="79.7" y="117.6" display="inline" fill="#C6C6C6" width="203.8" height="7.5"/>
</g>
<g id="titre" display="none">
	<rect x="28.5" y="153.4" display="inline" fill="#B2B2B2" width="226.9" height="6"/>
	<rect x="0.3" y="139.7" display="inline" fill="#C6C6C6" width="283.5" height="7.5"/>
</g>
<g id="imagePosition" display="none">
	
		<rect y="117.4" display="inline" fill="none" stroke="#B2B2B2" stroke-width="0.75" stroke-miterlimit="10" width="84.4" height="65.5"/>
	
		<rect x="199.1" y="117.4" display="inline" fill="none" stroke="#B2B2B2" stroke-width="0.75" stroke-miterlimit="10" width="84.4" height="65.5"/>
	<rect x="99.5" y="117.4" display="inline" fill="#9D9D9C" width="84.4" height="65.5"/>
</g>
</svg>
